<?xml version="1.0" encoding="UTF-8"?>
<!DOCTYPE svg PUBLIC "-//W3C//DTD SVG 1.1//EN" "http://www.w3.org/Graphics/SVG/1.1/DTD/svg11.dtd">
<!-- Creator: CorelDRAW 2026 -->
<svg xmlns="http://www.w3.org/2000/svg" xml:space="preserve" width="181px" height="35px" version="1.1" style="shape-rendering:geometricPrecision; text-rendering:geometricPrecision; image-rendering:optimizeQuality; fill-rule:evenodd; clip-rule:evenodd"
viewBox="0 0 3162.05 611.96"
 xmlns:xlink="http://www.w3.org/1999/xlink"
 xmlns:xodm="http://www.corel.com/coreldraw/odm/2003">
 <defs>
  <style type="text/css">
   <![CDATA[
    .fil7 {fill:#ffffff}
    .fil0 {fill:#149438}
    .fil2 {fill:#45B4E3}
    .fil3 {fill:#7DDFFC}
    .fil1 {fill:#8AC566}
    .fil4 {fill:#C6132F}
    .fil5 {fill:#EB5D1F}
    .fil6 {fill:#F28600}
   ]]>
  </style>
    <mask id="id0">
  <linearGradient id="id1" gradientUnits="userSpaceOnUse" x1="339.35" y1="364.81" x2="339.37" y2="576.36">
   <stop offset="0" style="stop-opacity:1; stop-color:white"/>
   <stop offset="1" style="stop-opacity:0; stop-color:white"/>
  </linearGradient>
     <rect style="fill:url(#id1)" x="106.64" y="323.73" width="425.69" height="292.81"/>
    </mask>
    <mask id="id2">
  <linearGradient id="id3" gradientUnits="userSpaceOnUse" x1="550.79" y1="220.4" x2="550.79" y2="346.82">
   <stop offset="0" style="stop-opacity:1; stop-color:white"/>
   <stop offset="1" style="stop-opacity:0; stop-color:white"/>
  </linearGradient>
     <rect style="fill:url(#id3)" x="445.01" y="191.51" width="171.54" height="310.61"/>
    </mask>
    <mask id="id4">
  <linearGradient id="id5" gradientUnits="userSpaceOnUse" x1="301.45" y1="-27.7" x2="503.54" y2="210.46">
   <stop offset="0" style="stop-opacity:1; stop-color:white"/>
   <stop offset="1" style="stop-opacity:0; stop-color:white"/>
  </linearGradient>
     <rect style="fill:url(#id5)" x="302.73" y="-4.58" width="280.99" height="262.12"/>
    </mask>
 </defs>
 <g id="Camada_x0020_1">
  <metadata id="CorelCorpID_0Corel-Layer"/>
  <g id="_2484909166576">
   <path class="fil0" d="M527.75 516.8c-55.74,58.62 -134.49,95.16 -221.76,95.16 -74,0 -141.86,-26.26 -194.77,-69.98l296.77 -213.67 119.76 188.49z"/>
   <path class="fil1" style="mask:url(#id0)" d="M527.75 516.8c-55.74,58.62 -134.49,95.16 -221.76,95.16 -74,0 -141.86,-26.26 -194.77,-69.98l296.77 -213.67 119.76 188.49z"/>
   <path class="fil2" d="M591.63 196.09c13.13,34.1 20.34,71.15 20.34,109.88 0,72.52 -25.24,139.14 -67.4,191.57l-94.98 -199.18 142.04 -102.27z"/>
   <path class="fil3" style="mask:url(#id2)" d="M591.63 196.09c13.13,34.1 20.34,71.15 20.34,109.88 0,72.52 -25.24,139.14 -67.4,191.57l-94.98 -199.18 142.04 -102.27z"/>
   <path class="fil4" d="M43.37 463.06c-27.53,-45.93 -43.37,-99.65 -43.37,-157.09 0,-158.48 120.49,-288.82 274.86,-304.42l-231.49 461.51zm334.59 -182.01l-214.97 120.85 128.89 -256.35 86.08 135.5z"/>
   <path class="fil5" d="M307.31 0c118.77,0.5 221.57,68.68 271.83,167.97l-151.2 84.99 -120.63 -252.96z"/>
   <path class="fil6" style="mask:url(#id4)" d="M307.31 0c118.77,0.5 221.57,68.68 271.83,167.97l-151.2 84.99 -120.63 -252.96z"/>
  </g>
  <path class="fil7" d="M1966.71 480.35l0 108.86c0,4.27 -3.49,7.75 -7.75,7.75l-47.95 0c-4.27,0 -7.75,-3.48 -7.75,-7.75l0 -338.95c0,-49.89 40.35,-91.34 90.45,-91.34l133.07 0c35.08,0 64.96,16.93 85.91,44.58 24.62,32.47 34,75.07 34.07,115.17 0.06,38.28 -9.09,78.85 -32.08,110.12 -19.37,26.34 -47.35,43.81 -80.57,43.81l-159.65 0c-4.27,0 -7.75,3.49 -7.75,7.75zm-1182.73 -77.24l0 -152.85c0,-50.8 42.3,-91.34 92.76,-91.34l136.62 0c35.63,0 66.37,16.62 88.1,44.54 25.18,32.34 34.91,74.88 34.98,115.21 0.07,38.5 -9.43,79.01 -32.94,110.16 -20.08,26.6 -48.86,43.77 -82.61,43.77l-164.23 0c-4.26,0 -7.75,3.49 -7.75,7.75l0 46.68c0,4.27 -3.48,7.75 -7.75,7.75l-49.43 0c-4.27,0 -7.75,-3.48 -7.75,-7.75l0 -46.68c0,-4.26 -3.49,-7.75 -7.75,-7.75l-47.66 0c-50.1,0 -90.45,-41.45 -90.45,-91.34l0 -338.95c0,-4.27 3.48,-7.75 7.75,-7.75l47.95 0c4.26,0 7.75,3.48 7.75,7.75l0 314.9c0,29.63 24.43,53.65 53.98,53.65l20.68 0c4.26,0 7.75,-3.49 7.75,-7.75zm450.72 -241.4c66.16,-17.76 176.79,-27.26 224.42,19.34 27.08,26.51 41.41,59.06 42.08,97.03l3.28 186.63c0.04,2.16 -0.7,4.03 -2.22,5.57 -1.51,1.54 -3.37,2.32 -5.53,2.32l-40.54 0c-4.22,0 -7.68,-3.4 -7.75,-7.63l-2.45 -157.11c-0.47,-29.98 -11.38,-55.76 -32.47,-76.99 -38.05,-38.29 -131.4,-28.26 -183.04,-12.87 -3.34,1 -5.54,3.95 -5.54,7.43l0 239.42c0,4.27 -3.48,7.75 -7.75,7.75l-42.19 0c-4.26,0 -7.75,-3.48 -7.75,-7.75l0 -412.74c0,-4.27 3.49,-7.75 7.75,-7.75l42.19 0c4.27,0 7.75,3.48 7.75,7.75l0 102.12c0,2.49 1.06,4.63 3.04,6.15 1.97,1.51 4.32,1.98 6.72,1.33zm565.32 112.15l0 -15.7c0,-25.81 -21.13,-46.94 -46.94,-46.94l-192.22 0c-4.27,0 -7.75,-3.48 -7.75,-7.75l0 -44.87c0,-4.27 3.48,-7.75 7.75,-7.75l220.36 0c43.82,0 79.66,35.84 79.66,79.66l0 204.03c0,20.94 -17.12,38.06 -38.06,38.06l-189.93 0c-52.54,0 -95.5,-42.96 -95.5,-95.5 0,-52.53 42.96,-95.49 95.5,-95.49l159.38 0c4.27,0 7.75,-3.49 7.75,-7.75zm845.15 0l0 -15.7c0,-25.81 -21.14,-46.94 -46.94,-46.94l-192.22 0c-4.27,0 -7.76,-3.48 -7.76,-7.75l0 -44.87c0,-4.27 3.49,-7.75 7.76,-7.75l220.35 0c43.83,0 79.67,35.84 79.67,79.66l0 204.03c0,20.94 -17.12,38.06 -38.07,38.06l-189.93 0c-52.54,0 -95.49,-42.96 -95.49,-95.5 0,-52.53 42.96,-95.49 95.49,-95.49l159.38 0c4.27,0 7.76,-3.49 7.76,-7.75zm-362.16 190.99l0 -431.11c0,-4.27 3.48,-7.75 7.75,-7.75l49.98 0c4.27,0 7.76,3.48 7.76,7.75l0 431.11c0,4.27 -3.49,7.75 -7.76,7.75l-49.98 0c-4.27,0 -7.75,-3.48 -7.75,-7.75zm595.46 -62.74c3.08,1.6 6.17,3.2 9.25,4.8 1.99,1.03 4.08,1.17 6.19,0.41 2.1,-0.75 3.63,-2.19 4.51,-4.25 34.62,-81.16 69.25,-162.34 103.87,-243.5 1.24,-2.92 3.96,-4.71 7.13,-4.71 19.35,0 38.72,0 58.07,0 2.7,0 5.02,1.26 6.5,3.52 1.47,2.27 1.68,4.9 0.59,7.37 -63.65,143.8 -127.31,287.61 -190.95,431.41 -1.27,2.87 -3.95,4.62 -7.09,4.62 -18.99,0 -37.98,0 -56.97,0 -2.75,0 -5.12,-1.31 -6.58,-3.64 -1.45,-2.34 -1.6,-5.03 -0.39,-7.5 18.73,-38.52 37.48,-77.05 56.22,-115.57 1.02,-2.09 1.07,-4.29 0.16,-6.43 -0.92,-2.14 -2.54,-3.62 -4.76,-4.34 -11.97,-3.85 -23.95,-7.7 -35.93,-11.55 -2.24,-0.72 -3.89,-2.24 -4.79,-4.42 -38.93,-94.25 -77.86,-188.5 -116.79,-282.76 -1.02,-2.46 -0.76,-5.05 0.72,-7.26 1.49,-2.22 3.78,-3.45 6.44,-3.45 20.7,0 41.39,0 62.09,0 3.27,0 6.05,1.92 7.23,4.97 30.53,79.39 61.07,158.79 91.6,238.18 0.71,1.84 1.92,3.2 3.68,4.1zm206.66 -346.39l69.16 0c2.2,0 4.1,0.81 5.62,2.4 1.52,1.6 2.23,3.54 2.12,5.74l-13.49 264.5c-0.21,4.13 -3.61,7.36 -7.74,7.36l-42.18 0c-4.13,0 -7.53,-3.23 -7.74,-7.36l-13.5 -264.5c-0.11,-2.2 0.61,-4.14 2.13,-5.74 1.51,-1.59 3.41,-2.4 5.62,-2.4zm8.34 339.16l52.48 0c5.53,0 10.04,4.51 10.04,10.05l0 59.42c0,5.53 -4.51,10.04 -10.04,10.04l-52.48 0c-5.53,0 -10.04,-4.51 -10.04,-10.04l0 -59.42c0,-5.54 4.51,-10.05 10.04,-10.05zm-1119.01 19.22l140.04 0c48.15,0 68.88,-53.82 68.81,-94.8 -0.08,-44.64 -21.96,-98.64 -73.71,-98.64l-88.91 0c-29.55,0 -53.98,24.02 -53.98,53.65l0 132.04c0,4.27 3.48,7.75 7.75,7.75zm-1117.8 0l144.09 0c48.81,0 70.82,-52.64 70.75,-94.8 -0.08,-45.9 -23.37,-98.64 -75.78,-98.64l-91.28 0c-29.77,0 -55.53,23.44 -55.53,53.65l0 132.04c0,4.27 3.49,7.75 7.75,7.75zm945.84 -24.19l0 -41.12c0,-6.32 -5.06,-11.63 -11.43,-11.63l-158.75 0c-21.77,0 -39.37,18.3 -39.37,39.94 0,21.65 17.59,39.95 39.37,39.95l143.44 0c14.87,0 26.74,-12.36 26.74,-27.14zm846.6 0l0 -41.12c0,-6 -4.47,-11.63 -10.71,-11.63l-151.26 0c-21.47,0 -37.34,19.2 -37.34,39.94 0,20.75 15.86,39.95 37.34,39.95l136.68 0c14.62,0 25.29,-12.98 25.29,-27.14z"/>
 </g>
</svg>
